<svg width="24" height="24" viewBox="0 0 24 24" fill="none" xmlns="http://www.w3.org/2000/svg">
<g clip-path="url(#clip0_422_334)">
<path fill-rule="evenodd" clip-rule="evenodd" d="M14.4238 1.2474C13.7632 0.762314 12.965 0.500732 12.1454 0.500732C11.3258 0.500732 10.5276 0.762314 9.86697 1.2474L8.53297 2.2249C8.31326 2.38637 8.05782 2.49239 7.78835 2.53396L6.15103 2.78553C5.3416 2.90996 4.59294 3.28928 4.01387 3.86836C3.43479 4.44744 3.05547 5.19609 2.93103 6.00553L2.67947 7.64428C2.6379 7.91375 2.53188 8.16919 2.37041 8.3889L1.39291 9.7229C0.907822 10.3835 0.64624 11.1817 0.64624 12.0013C0.64624 12.8209 0.907822 13.6191 1.39291 14.2798L2.37041 15.6138C2.53285 15.8337 2.63778 16.0882 2.67947 16.3584L2.93103 17.9943C3.05547 18.8037 3.43479 19.5524 4.01387 20.1314C4.59294 20.7105 5.3416 21.0898 6.15103 21.2143L7.78691 21.4658C8.05572 21.5075 8.3116 21.6125 8.53153 21.7749L9.86553 22.7524C10.5262 23.2375 11.3244 23.4991 12.144 23.4991C12.9636 23.4991 13.7618 23.2375 14.4224 22.7524L15.7564 21.7749C15.9759 21.613 16.2314 21.507 16.501 21.4658L18.1369 21.2143C18.9468 21.09 19.6959 20.7106 20.2753 20.1313C20.8547 19.5519 21.2341 18.8027 21.3583 17.9928L21.6099 16.357C21.6516 16.0882 21.7565 15.8323 21.919 15.6123L22.8965 14.2783C23.3816 13.6177 23.6431 12.8195 23.6431 11.9999C23.6431 11.1803 23.3816 10.3821 22.8965 9.72146L21.919 8.38746C21.7576 8.16773 21.6515 7.91229 21.6099 7.64284L21.3598 6.00553C21.2353 5.19609 20.856 4.44744 20.277 3.86836C19.6979 3.28928 18.9492 2.90996 18.1398 2.78553L16.5039 2.53396C16.2345 2.49234 15.979 2.38632 15.7593 2.2249L14.4238 1.2474ZM11.1435 2.9839C11.74 2.54546 12.5522 2.54546 13.1473 2.9839L14.4813 3.9614C14.9816 4.3294 15.5623 4.56946 16.1776 4.66434L17.8106 4.91446C18.5437 5.02659 19.1173 5.60159 19.2294 6.33328L19.4795 7.96771C19.5744 8.58153 19.8145 9.16228 20.1825 9.66396L21.16 10.9965C21.5984 11.5931 21.5984 12.4053 21.16 13.0004L20.1825 14.3344C19.8148 14.8348 19.5736 15.4168 19.4795 16.0307L19.2294 17.6637C19.175 18.0205 19.008 18.3506 18.7528 18.6058C18.4975 18.8611 18.1674 19.0281 17.8106 19.0825L16.1762 19.3326C15.5623 19.4267 14.9804 19.6678 14.4799 20.0355L13.1473 21.013C12.5508 21.4515 11.7386 21.4515 11.1435 21.013L9.80947 20.0355C9.30903 19.6678 8.72706 19.4267 8.11322 19.3326L6.48022 19.0825C6.12339 19.0281 5.79328 18.8611 5.53804 18.6058C5.28281 18.3506 5.11581 18.0205 5.06141 17.6637L4.81128 16.0292C4.71722 15.4154 4.47604 14.8334 4.10835 14.333L3.13085 13.0004C2.91761 12.7099 2.80262 12.3589 2.80262 11.9985C2.80262 11.6381 2.91761 11.2871 3.13085 10.9965L4.10835 9.66253C4.47635 9.16228 4.71641 8.58153 4.81128 7.96628L5.06141 6.33328C5.17353 5.60015 5.74853 5.02659 6.48022 4.91446L8.11466 4.66434C8.7285 4.57027 9.31047 4.3291 9.81091 3.9614L11.1435 2.9839ZM16.8604 10.2462C17.0508 10.0418 17.1545 9.77146 17.1496 9.49215C17.1447 9.21284 17.0315 8.94635 16.834 8.74882C16.6365 8.55129 16.37 8.43814 16.0907 8.43321C15.8114 8.42828 15.541 8.53196 15.3367 8.7224L10.7079 13.3511L8.95416 11.5974C8.74978 11.407 8.47947 11.3033 8.20016 11.3082C7.92085 11.3131 7.65436 11.4263 7.45683 11.6238C7.2593 11.8214 7.14615 12.0878 7.14122 12.3672C7.13629 12.6465 7.23997 12.9168 7.43041 13.1212L9.94603 15.6368C10.1482 15.8387 10.4222 15.9521 10.7079 15.9521C10.9936 15.9521 11.2676 15.8387 11.4698 15.6368L16.8604 10.2462Z" fill="url(#paint0_linear_422_334)"/>
</g>
<defs>
<linearGradient id="paint0_linear_422_334" x1="0.64624" y1="0.500732" x2="23.9235" y2="0.788088" gradientUnits="userSpaceOnUse">
<stop stop-color="#EBEBEB"/>
<stop offset="1" stop-color="#5B68DF"/>
</linearGradient>
<clipPath id="clip0_422_334">
<rect width="23" height="23" fill="white" transform="translate(0.645508 0.5)"/>
</clipPath>
</defs>
</svg>
